<?xml version="1.0" encoding="UTF-8"?>

<svg xmlns="http://www.w3.org/2000/svg" width="80" height="80" viewBox="0 0 80 80" fill="none" stroke="currentColor" stroke-width="0.8" stroke-opacity="0.4">
  
  <g transform="translate(40 40)">
    <polygon points="0,-30 8.5,-8.5 30,0 8.5,8.5 0,30 -8.5,8.5 -30,0 -8.5,-8.5"></polygon>
    <polygon points="0,-22 5,-5 22,0 5,5 0,22 -5,5 -22,0 -5,-5" stroke-opacity="0.25"></polygon>
  </g>

  
  <circle cx="0" cy="0" r="2" fill="currentColor" stroke="none" fill-opacity="0.3"></circle>
  <circle cx="80" cy="0" r="2" fill="currentColor" stroke="none" fill-opacity="0.3"></circle>
  <circle cx="0" cy="80" r="2" fill="currentColor" stroke="none" fill-opacity="0.3"></circle>
  <circle cx="80" cy="80" r="2" fill="currentColor" stroke="none" fill-opacity="0.3"></circle>

  
  <line x1="40" y1="10" x2="40" y2="0"></line>
  <line x1="40" y1="70" x2="40" y2="80"></line>
  <line x1="10" y1="40" x2="0" y2="40"></line>
  <line x1="70" y1="40" x2="80" y2="40"></line>
</svg>